<svg id="Layer_1" data-name="Layer 1" xmlns="http://www.w3.org/2000/svg" viewBox="0 0 2324.01 2221.75"><title>left-arrow</title><g id="BsqImu.tif"><path d="M736.51,1450.55c14.25,11.74,29.55,22.44,42.59,35.4,147.11,146.27,439.4,438.35,586.21,584.92,61.47,61.37,61.65,132.71.52,194.32-21.73,21.91-43.49,43.82-65.78,65.16-55.55,53.18-129.34,53.65-183.36-.3C839,2052.76,416.07,1629.73,138.89,1351.93c-56.72-56.84-54.06-130.6,5.62-190.32Q500.66,805.26,857,449.12c37-37,220.18-220.64,257.2-257.54,57-56.83,131.49-57.33,189.39-1.15,22.16,21.49,43.91,43.4,65.48,65.47,57.76,59.1,58.21,132.89-.12,191.55-151,151.89-449.16,449.7-600.32,601.47-7.55,7.58-22.89,14.62-18.81,25.06,4.22,10.81,20,4.66,30.54,4.67q753.6.36,1507.19-.37c69.66-.15,137.08,56.32,134.3,134.36-1,29.21-1.19,58.54,0,87.73,3.26,77.41-61,141.3-139.8,141.11q-754.88-1.77-1509.77-.6H742.65Z" transform="translate(-97.99 -148.63)"/></g></svg>