<svg id="Layer_1" data-name="Layer 1" xmlns="http://www.w3.org/2000/svg" viewBox="0 0 1840.12 1839.89"><defs><style>.cls-1{fill:#262626;}</style></defs><title>reset</title><path class="cls-1" d="M1716.7,750.47,1495.47,936.89,2140.28,1088c-10.24-219.11-20.27-433.86-31-662.48-60.64,50.65-113,90.72-160.83,135.58-33,30.89-53.82,35.24-92.34,2.4C1518.69,275.71,1050.58,265.6,695.9,535c-287.08,218.08-419.36,606.26-326.67,958.6,93.48,355.33,394.65,626.05,752.66,676.55,530.38,74.83,996.83-288.72,1057.05-821.73,5.15-45.59-6.75-63.55-51.16-68.74-41.73-4.88-84.12-11.88-123.69-25.37-51.59-17.59-58.21,3.4-60.7,48.82-26.94,491.77-554.61,796.17-993.48,568.92C707,1746.31,576.77,1538,576.17,1263.45c-.61-277.36,129.58-489.25,376.61-612.9C1199,527.3,1442.72,548.9,1668.54,714,1682.87,724.47,1696.85,735.41,1716.7,750.47Z" transform="translate(-339.94 -340.05)"/></svg>