<svg id="Layer_1" data-name="Layer 1" xmlns="http://www.w3.org/2000/svg" viewBox="0 0 1654.39 1648.8"><title>search</title><path d="M1869.35,1728.45c-136.68-136.68-274.19-272.57-408.95-411.13-30.62-31.47-60.54-51.2-104.8-43.35a33.36,33.36,0,0,1-6.63,0c-15.64-.36-22.76-13.45-30.34-23.26-7-9,5.9-14.66,10.57-20.69,112.23-144.84,153.79-307.69,123.5-488.19-56.48-336.53-388.82-564-722.73-495.43C401.6,313.84,192.14,616,243.13,948.69c52.18,340.46,394.42,574.89,730.46,501.1,97.49-21.41,184.91-62.62,262.56-125.12,3.81-3.07,7.59-12.42,13.84-6.42,10.65,10.19,26,17.49,24.3,36.77-1.32,15.38.12,31-.41,46.45-.32,9.43,2.14,16.55,9.12,23.5q226.7,225.6,452.79,451.81c7.78,7.78,12,8.72,20.33.29,42.93-43.63,86.59-86.56,133.77-133.49C1882.44,1738.17,1875.05,1734.15,1869.35,1728.45ZM848.24,1273.86c-234.37-.23-424.13-190.39-424.19-425.08C424,613.44,612.62,424.4,847.87,424.05c235.62-.35,426.65,190.46,426,425.49C1273.19,1083.6,1082.11,1274.09,848.24,1273.86Z" transform="translate(-235.5 -234.21)"/></svg>